<svg xmlns="http://www.w3.org/2000/svg" version="1.1" xmlns:xlink="http://www.w3.org/1999/xlink" xmlns:svgjs="http://svgjs.dev/svgjs" width="1440" height="560" preserveAspectRatio="none" viewBox="0 0 1440 560"><g mask="url(&quot;#SvgjsMask1000&quot;)" fill="none"><rect width="1440" height="560" x="0" y="0" fill="#0e2a47"></rect><path d="M0,411.009C81.8,401.022,166.968,411.909,239.045,371.962C313.599,330.643,374.898,264.81,406.574,185.676C437.539,108.318,431.398,21.762,411.627,-59.183C393.123,-134.941,351.806,-201.759,298.124,-258.326C246.206,-313.034,176.502,-339.889,110.537,-376.456C24.349,-424.233,-50.76,-518.057,-148.556,-505.936C-245.802,-493.883,-310.754,-398.119,-366.254,-317.361C-417.603,-242.643,-433.124,-153.687,-451.628,-64.934C-471.377,29.793,-509.366,126.747,-477.924,218.26C-445.432,312.827,-372.489,397.906,-279.754,435.306C-191.151,471.04,-94.833,422.588,0,411.009" fill="#0b2239"></path><path d="M1440 964.6279999999999C1518.032 952.735 1598.669 952.871 1665.805 911.36 1733.599 869.442 1771.659 797.861 1816.399 731.895 1870.223 652.535 1965.837 581.25 1954.251 486.062 1942.695 391.118 1826.3600000000001 351.716 1761.562 281.365 1699.285 213.75099999999998 1670.87 98.80200000000002 1580.771 80.577 1489.728 62.161 1420.485 164.21499999999997 1332.714 194.61700000000002 1250.922 222.94799999999998 1141.49 186.805 1084.924 252.325 1028.346 317.85900000000004 1079.63 420.786 1063.945 505.931 1047.327 596.138 971.563 675.55 990.422 765.315 1010.204 859.472 1077.1979999999999 948.673 1165.155 987.6669999999999 1250.94 1025.6979999999999 1347.234 978.767 1440 964.6279999999999" fill="#113255"></path></g><defs><mask id="SvgjsMask1000"><rect width="1440" height="560" fill="#ffffff"></rect></mask></defs></svg>